# xmcd CD database file
#
# Track frame offsets:
#	150
#	37165
#	49940
#	59544
#	78774
#	102110
#
# Disc length: 1558 seconds
#
# Revision: 1
# Processed by: cddbd v1.5.2PL0 Copyright (c) Steve Scherf et al.
# Submitted via: CDex 1.70beta2
#
DISCID=49061406
DTITLE=compilation - Jazzmag n°594 - Cd collection Live Jazz 47
DYEAR=2008
DGENRE=Jazz
TTITLE0=Hot Lips Page - Hot Lips's blues
TTITLE1=Billie Holiday - You' d better go now
TTITLE2=Ella Fitzgerald - Almost like being in love
TTITLE3=Charlie Parker and Dizzy Gillespie - Koko
TTITLE4=Dizzy Gillespie - Salt peanuts
TTITLE5=Dizzy Gillespie - Toccata for trumpet
EXTD=YEAR: 2008
EXTT0=
EXTT1=
EXTT2=
EXTT3=
EXTT4=
EXTT5=
PLAYORDER=
